PathFileType	4	(X/Y/Z)	C:\Users\Biomechanik\SynologyDrive\AlexP\Athlete_03\Athlete_3_25_03_31\Walking_05\marker_experimental.trc
DataRate	CameraRate	NumFrames	NumMarkers	Units	OrigDataRate	OrigDataStartFrame	OrigNumFrames
200.000000	200.000000	4	53	mm	200.000000	42	342
Frame#	Time	GLAB			RFHD			LFHD			C7			T6			SPINMOL			SPINM2			SPINM3			T12			BELTOL			BELT2			BELT3			SACROL			SACR2			SACR3			LTHOL			LTH2			LTH3			LSHAOL			LSHA2			LSHA3			LHEE			LTOE			LM5			RTHOL			RTH2			RTH3			RSHAOL			RSHA2			RSHA3			RHEE			RTOE			RM5			STRN			XIPH			LACR			LUAOL			LUA2			LUA3			LLAOL			LLA2			LLA3			LWRR			LWRU			RACR			RUAOL			RUA2			RUA3			RLAOL			RLA2			RLA3			RWRR			RWRU			
		X1	Y1	Z1	X2	Y2	Z2	X3	Y3	Z3	X4	Y4	Z4	X5	Y5	Z5	X6	Y6	Z6	X7	Y7	Z7	X8	Y8	Z8	X9	Y9	Z9	X10	Y10	Z10	X11	Y11	Z11	X12	Y12	Z12	X13	Y13	Z13	X14	Y14	Z14	X15	Y15	Z15	X16	Y16	Z16	X17	Y17	Z17	X18	Y18	Z18	X19	Y19	Z19	X20	Y20	Z20	X21	Y21	Z21	X22	Y22	Z22	X23	Y23	Z23	X24	Y24	Z24	X25	Y25	Z25	X26	Y26	Z26	X27	Y27	Z27	X28	Y28	Z28	X29	Y29	Z29	X30	Y30	Z30	X31	Y31	Z31	X32	Y32	Z32	X33	Y33	Z33	X34	Y34	Z34	X35	Y35	Z35	X36	Y36	Z36	X37	Y37	Z37	X38	Y38	Z38	X39	Y39	Z39	X40	Y40	Z40	X41	Y41	Z41	X42	Y42	Z42	X43	Y43	Z43	X44	Y44	Z44	X45	Y45	Z45	X46	Y46	Z46	X47	Y47	Z47	X48	Y48	Z48	X49	Y49	Z49	X50	Y50	Z50	X51	Y51	Z51	X52	Y52	Z52	X53	Y53	Z53	

43	0.21	-417.5189208984377	1587.205932617188	301.0582885742187	-469.5820312500002	1609.7236328125	365.4877624511718	-461.0176696777345	1611.742065429688	228.3049316406249	-640.0623168945314	1422.389892578125	282.6302185058593	-694.3023071289064	1252.2705078125	271.5560607910155	-701.3293457031251	1212.51025390625	249.0192871093749	-705.6436157226564	1203.785278320312	298.5915527343749	-695.4353637695314	1148.16748046875	263.4819030761718	-669.8944702148439	1083.062744140625	265.2410278320311	-700.8050537109376	1047.933349609375	248.853790283203	-699.9127197265626	1046.242431640625	299.3000183105468	-704.7885742187501	985.8758544921875	270.9341735839843	-691.6134643554689	933.9364013671875	253.9701843261718	-684.7794799804689	934.5735473632812	304.9226074218749	-699.4830322265625	874.0008544921875	282.0509033203124	-611.6495361328125	656.6609497070312	70.09709930419911	-648.4901733398438	598.8361206054688	110.5591735839843	-611.53466796875	596.5006713867188	77.86177825927723	-719.848388671875	397.5586242675781	59.86229705810533	-792.922119140625	395.3558959960937	91.26988983154283	-763.3212890625	356.6270446777343	75.7479095458983	-915.4057006835938	307.6609802246093	191.4833679199217	-899.9382934570312	88.11523437499994	178.3770904541014	-943.9469604492188	130.0705566406249	91.80848693847639	-528.2507324218751	666.1337280273438	453.9909667968749	-458.3627319335939	631.0704345703125	457.0522766113281	-501.7535400390626	612.218994140625	444.1922607421874	-470.9341735839844	329.0783996582031	438.2983398437499	-430.6590881347657	261.0985717773438	432.0310363769531	-479.2716369628907	269.2238464355468	422.990997314453	-499.1012878417969	56.48870849609372	311.2670898437499	-285.2991638183594	48.2351837158203	328.1453857421874	-343.2038269042969	37.5627861022949	425.4719543457031	-463.8590698242189	1326.739013671875	283.4378662109374	-443.0198059082032	1184.310791015625	275.4394226074218	-556.8485717773439	1395.280395507812	110.8132705688476	-547.5167236328126	1250.595947265625	1.903101563453574	-555.0202026367189	1190.077514648438	-22.88080596923838	-510.5282897949219	1196.573120117188	0.05186291411509673	-464.2108459472657	1001.330322265625	-56.67601013183602	-471.9186401367188	923.8634643554688	-43.69155502319344	-429.9011535644532	950.9515991210938	-52.26080703735359	-363.2817077636719	871.3722534179688	-45.19800186157233	-339.0243835449219	893.0933837890625	26.96248817443841	-557.6008911132815	1374.670654296875	451.4380798339843	-587.7591552734377	1223.937255859375	544.2445068359374	-569.8601684570315	1160.978515625	552.2713623046874	-619.3470458984377	1168.498657226562	562.1811523437499	-606.5422363281252	948.6466674804688	593.4122314453124	-558.8745117187501	893.860107421875	625.4624633789061	-599.3781127929689	886.23388671875	597.6784667968749	-567.9642944335939	803.3051147460938	615.7395019531249	-526.1072998046876	785.1768798828125	548.0036621093749	
44	0.215	-410.4302368164064	1588.157348632812	301.5874023437499	-462.4500732421877	1610.75732421875	366.0146484374999	-453.8790588378908	1612.727172851562	228.8329010009765	-633.1006469726564	1423.54736328125	283.2477416992186	-687.4846801757814	1253.429565429688	272.3928833007811	-694.4804687500001	1213.620361328125	249.9183654785155	-698.8414916992189	1204.977416992188	299.4997558593749	-688.6238403320314	1149.299560546875	264.4842529296874	-663.0795288085939	1084.122802734375	266.2703857421874	-694.0853271484376	1048.768920898438	249.9762115478514	-693.2001953125001	1047.110107421875	300.4240722656249	-698.0753784179689	986.7268676757812	272.0936889648436	-684.7335815429689	934.7755737304688	255.0449066162108	-678.0250854492189	935.5422973632812	306.0198364257811	-692.6572875976562	874.9039916992188	283.2526855468749	-601.08544921875	657.059326171875	70.57058715820301	-637.0445556640625	598.5486450195312	110.8441009521483	-600.0148315429688	596.876708984375	78.17318725585926	-705.9743041992188	399.4641113281249	59.99129104614245	-779.0071411132812	397.7454223632812	91.50637817382798	-749.6893310546875	358.8178405761718	75.96438598632798	-902.6744995117188	310.6302185058593	192.0767364501951	-886.1981201171875	90.94810485839838	178.5782318115233	-929.9893798828125	133.1994476318359	92.05252838134749	-523.4575195312501	666.885009765625	454.5842285156249	-453.9829406738282	631.1406860351562	457.4189758300781	-497.3769531250001	612.7286376953125	444.7496337890624	-469.0589294433594	329.1321105957031	438.4949951171874	-429.2137756347657	260.9515686035156	432.1074829101562	-477.7859802246094	269.3643798828124	423.1438598632811	-498.9870910644532	56.65130615234372	311.1082763671874	-285.1478576660157	47.99082183837889	328.1617431640624	-343.1839599609376	37.60105895996092	425.4516601562499	-456.9869384765626	1327.717407226562	283.9045104980468	-436.2328186035157	1185.30029296875	276.1563110351562	-550.1783447265626	1396.051147460938	111.2927322387694	-541.6829223632814	1251.090087890625	2.5724036693572	-549.4896240234376	1190.566040039062	-22.11214637756358	-504.8496704101563	1196.934448242188	0.5900188088416126	-460.4710388183594	1000.971740722656	-56.32516098022469	-469.2190856933594	923.6116333007812	-43.35978698730477	-426.9233398437501	950.044921875	-52.21843338012703	-361.4970092773438	869.4178466796875	-45.77981948852545	-336.3960876464844	890.5458984375	26.23771095275873	-550.4152832031252	1375.905395507812	452.0060729980468	-579.8438110351565	1225.126708984375	545.1388549804686	-561.7381591796877	1162.222290039062	553.0457153320311	-611.1179809570315	1169.584106445312	563.2490844726561	-597.1619873046877	949.7454223632812	594.4810791015624	-548.7525634765626	895.1159057617188	625.9104614257811	-589.5950317382814	887.3511962890625	598.6179199218749	-557.6341552734376	804.585205078125	616.2532958984374	-516.1503906250001	786.7388305664062	548.1436767578124	
45	0.22	-403.3540954589845	1589.100708007812	302.0679626464843	-455.3264465332033	1611.796508789062	366.4901428222656	-446.7491455078127	1613.699584960938	229.3083496093749	-626.1743164062501	1424.708862304688	283.8287353515624	-680.6972656250001	1254.5908203125	273.2136230468749	-687.6624755859376	1214.733032226562	250.8028869628905	-692.0688476562501	1206.172729492188	300.3936157226561	-681.8419189453126	1150.434814453125	265.4725952148436	-656.2943725585939	1085.192260742188	267.2818908691405	-687.4085083007814	1049.661254882812	251.1153869628905	-686.5140380859376	1048.028198242188	301.5641479492186	-691.4017944335939	987.6326904296875	273.2638244628905	-677.8833007812501	935.666748046875	256.0653991699218	-671.3171997070314	936.5386962890625	307.0653686523436	-685.8561401367188	875.8436889648438	284.3663330078124	-590.5488891601562	657.530029296875	71.05479431152332	-625.6090698242188	598.3562622070312	111.1469497680663	-588.5042724609375	597.341552734375	78.51853179931629	-692.075927734375	401.3429565429687	60.22994232177722	-765.0789794921875	400.0281066894531	91.81350708007798	-735.9979858398438	360.9397888183593	76.26229858398423	-889.9773559570312	313.2355957031249	192.6365661621092	-871.83642578125	93.57396697998041	178.8682556152342	-915.435546875	135.8919525146484	92.28935241699202	-518.7917480468751	667.654052734375	455.1561584472655	-449.7076721191407	631.2459716796875	457.8005676269531	-493.135955810547	613.2528076171875	445.2921142578124	-467.3154907226563	329.1889953613281	438.6784667968749	-427.8899230957032	260.822265625	432.1962890624999	-476.4124450683594	269.5073547363281	423.2874755859374	-498.8789062500001	56.81769561767575	310.9556884765624	-285.0160827636719	47.79063415527342	328.1961364746093	-343.1689758300782	37.62545776367185	425.4466857910156	-450.1481933593751	1328.701538085938	284.3375549316406	-429.4827880859376	1186.300170898438	276.8507995605468	-543.5535888671876	1396.81787109375	111.7402725219726	-535.8822021484376	1251.5751953125	3.226217031478783	-543.9774780273439	1191.042602539062	-21.3489818572999	-499.1936035156251	1197.297119140625	1.117726206779388	-456.7715454101563	1000.638122558594	-55.98601150512704	-466.5849304199219	923.4058227539062	-43.04472732543954	-424.0152587890626	949.166259765625	-52.18465805053719	-359.8240356445313	867.4931640625	-46.37220764160163	-333.8756103515626	888.0120849609375	25.48797035217279	-543.2778930664065	1377.164916992188	452.5415649414061	-571.9678344726565	1226.349609375	546.0144653320311	-553.6364746093752	1163.501953125	553.7964477539061	-602.913513183594	1170.69921875	564.2997436523436	-587.7613525390627	950.889892578125	595.5357666015624	-538.5860595703126	896.4248657226562	626.3154907226561	-579.7855834960939	888.5178833007812	599.5469360351561	-547.2702636718751	805.91162109375	616.7354125976561	-506.158172607422	788.3590087890625	548.2598266601561	
46	0.225	-396.2900390625002	1590.033935546875	302.5005798339843	-448.2113342285158	1612.838745117188	366.9147033691406	-439.6288452148439	1614.656372070312	229.7315216064452	-619.2815551757814	1425.870971679688	284.3747558593749	-673.9373168945314	1255.749877929688	274.0182495117186	-680.8731079101564	1215.844604492188	251.6722259521483	-685.3215942382814	1207.366455078125	301.2724304199218	-675.0863037109376	1151.569091796875	266.4450378417968	-649.5367431640626	1086.268920898438	268.2738952636718	-680.7733764648439	1050.608154296875	252.2630157470702	-679.8542480468751	1048.994995117188	302.7121276855468	-684.7655029296876	988.5907592773438	274.4366455078124	-671.0596313476564	936.608154296875	257.0209350585936	-664.6533813476564	937.5574340820312	308.0486755371093	-679.0809936523438	876.8170166015625	285.3774108886718	-580.030517578125	658.0635375976562	71.54359436035146	-614.1849975585938	598.2527465820312	111.4576263427733	-577.001953125	597.8873901367188	78.89079284667959	-678.15966796875	403.1765747070312	60.57040405273425	-751.1397094726562	402.1777343749999	92.19727325439439	-722.2509155273438	362.9698791503906	76.63447570800768	-877.294921875	315.4602355957031	193.1635742187498	-856.8965454101562	95.96147918701166	179.2410888671873	-900.3533325195312	138.1358947753906	92.53277587890608	-514.2548217773439	668.4408569335938	455.7052917480468	-445.5365600585939	631.384521484375	458.1972656249999	-489.0349426269532	613.7908935546875	445.8160400390624	-465.6971435546876	329.2541198730468	438.8479919433593	-426.6830749511719	260.7122802734375	432.2967834472656	-475.1471557617188	269.6577758789062	423.4202270507811	-498.7750549316407	56.98972320556638	310.8081970214843	-284.9007568359376	47.6271629333496	328.2457275390624	-343.1584777832032	37.63741683959959	425.4559020996093	-443.342254638672	1329.691772460938	284.7410278320312	-422.7674255371095	1187.308837890625	277.5241088867187	-536.9722900390626	1397.581665039062	112.1590042114257	-530.1101074218751	1252.05322265625	3.864480018615625	-538.4809570312501	1191.510009765625	-20.5916862487794	-493.5586242675782	1197.660766601562	1.638869881629853	-453.1108703613282	1000.334106445312	-55.65580368042001	-464.0155944824219	923.2506103515625	-42.7471237182618	-421.1735839843751	948.32177734375	-52.15859603881844	-358.2596130371094	865.6058349609375	-46.97489929199225	-331.4614562988282	885.4988403320312	24.71310234069818	-536.1907958984377	1378.448120117188	453.046661376953	-564.1346435546877	1227.604614257812	546.8714599609374	-545.5566406250002	1164.816650390625	554.5233764648436	-594.7368164062502	1171.843017578125	565.3323974609374	-578.3442382812502	952.0786743164062	596.5725708007811	-528.3823242187501	897.7875366210938	626.6778564453124	-569.9539184570314	889.7335815429688	600.4623413085936	-536.8738403320314	807.2850952148438	617.1848754882811	-496.1356201171877	790.0385131835938	548.3506469726561	
